<?xml version="1.0" encoding="UTF-8"?>
<svg id="Layer_1" xmlns="http://www.w3.org/2000/svg" version="1.1" viewBox="0 0 190 190">
  <!-- Generator: Adobe Illustrator 29.6.1, SVG Export Plug-In . SVG Version: 2.1.1 Build 9)  -->
  <defs>
    <style>
      .st0 {
        fill: #231f20;
      }
    </style>
  </defs>
  <path class="st0" d="M95,22.02c40.24,0,72.98,32.74,72.98,72.98s-32.74,72.98-72.98,72.98S22.02,135.24,22.02,95,54.76,22.02,95,22.02M95,4.02C44.75,4.02,4.02,44.75,4.02,95s40.73,90.98,90.98,90.98,90.98-40.73,90.98-90.98S145.25,4.02,95,4.02h0Z"/>
  <path class="st0" d="M121.69,138.1l-22.14-89.01c-1.17-4.69-7.84-4.69-9.01,0l-22.14,89.01c-.91,3.65,2.68,6.81,6.18,5.45l20.46-7.95,20.46,7.95c3.51,1.36,7.09-1.8,6.18-5.45ZM95,103.91c-4.92,0-8.91-3.99-8.91-8.91s3.99-8.91,8.91-8.91,8.91,3.99,8.91,8.91-3.99,8.91-8.91,8.91Z"/>
</svg>